[   0s] CDP targets: 1
[   0s]   page: file:///Users/runner/.comfy-test-cache/desktop/ComfyUI.app/Contents/Resources/desktop-ui/index.html#/welcome | ComfyUI
[   1s] Main page: file:///Users/runner/.comfy-test-cache/desktop/ComfyUI.app/Contents/Resources/desktop-ui/index.html#/welcome | ComfyUI
[   2s] Buttons: ['Get Started']
[   2s]   wizard: COMFY_TEST_GPU=0 platform=darwin preferred=['Apple Silicon', 'MPS', 'M4', 'M3', 'M2', 'M1']
[   3s]   clicked [BTN|Get Started]
[   4s]   url: file:///Users/runner/.comfy-test-cache/desktop/ComfyUI.app/Contents/Resources/desktop-ui/index.html#/welcome -> file:///Users/runner/.comfy-test-cache/desktop/ComfyUI.app/Contents/Resources/desktop-ui/index.html#/install
[   5s]   clicked [BTN|Next]
[  11s]   clicked [BTN|Next]
[  13s]   clicked [BTN|Install]
[  14s]   url: file:///Users/runner/.comfy-test-cache/desktop/ComfyUI.app/Contents/Resources/desktop-ui/index.html#/install -> file:///Users/runner/.comfy-test-cache/desktop/ComfyUI.app/Contents/Resources/desktop-ui/index.html#/server-start
[ 178s]   /system_stats up after 175s
[ 178s]   app: waiting for backend stability (continuous /system_stats up for 30s)
[ 178s]   app: /system_stats up; awaiting 30s of stability
[ 208s]   app: backend stable for 30s; proceeding
[ 208s]   capturing canvas load...
[ 216s]   post: waiting for Cloud upsell
[ 217s]   post: clicked Cloud upsell via [button:has-text("Continue Locally"):visible]
[ 219s]   post: waiting for Close Templates
[ 228s]   post: Close Templates not found, skipping
[ 228s]   post: pressed Escape (Close Templates fallback)
[ 230s]   post: waiting for Extensions
[ 231s]   post: clicked Extensions via [button[aria-label="Extensions"]:visible]
[ 233s]   ext: node meta = display='SAM3' publisher='pznodes' version='0.1.21'
[ 236s]   ext: searching "SAM3"
[ 240s]   ext: clicking SAM3 by pznodes tile
[ 244s]   ext: scrolling to + opening version selector
[ 247s]   ext: selected 0.1.21
[ 248s]   ext: clicking right-panel Install
[ 250s]   ext: clicked Install (last of 8 visible)
[ 258s]   ext: waiting for "Apply Changes" toast
[ 276s]   ext: clicked Apply Changes
[ 281s]   app: Apply Changes already triggered in-app restart, skipping pkill
[ 286s]   app: relaunching with CDP
[ 286s]   app: waiting for CDP
[ 286s]   app: CDP up after 1s
[ 286s]   app: reconnecting Playwright
[ 286s]   app: attached to http://127.0.0.1:8000/
[ 291s]   app: server ready after 3s
[ 291s]   app: waiting for main canvas (window.app.graph)
[ 291s]   app: canvas ready after 1s (http://127.0.0.1:8000/#92dfa086-8cff-4ff8-8e85-1a0c8755f9b2)
[ 296s]   app: forcing renderer reload to refresh node-pack manifest
[ 299s]   app: canvas re-ready after reload in 2s
[ 302s]   ext: closing Nodes Manager dialog
[ 302s]   ext: dismissing What's New popup
[ 303s]   ext: closed What's New popup
[ 305s]   ext: dismissing Node Pack Issues modal (if present)
[ 305s]   ext: closed Node Pack Issues modal
[ 308s]   ext: opening Templates sidebar
[ 308s]   ext: clicked Templates
[ 312s]   ext: locating "comfyui-sam3" section in Templates panel
[ 314s]   ext: clicked comfyui-sam3 section
[ 316s]   ext: fetching comfy-test.toml from https://raw.githubusercontent.com/PozzettiAndrea/ComfyUI-SAM3/main/comfy-test.toml
[ 317s]   ext: cpu spec = exclude ['video_point_prompt']
[ 317s]   ext: picking first matching comfyui-sam3 template
[ 317s]   ext: 5 visible cards
[ 317s]   ext: skipping video_point_prompt (not in CPU list)
[ 319s]   ext: clicked template scene_seg_interactive
[ 324s]   ext: installing WS execution listener
[ 324s]   ext: clicking Run
[ 325s]   ext: clicked Run
[ 325s]   ext: waiting for execution_success / execution_error
[ 926s]   ext: WS events=0 elapsed=600s
[ 926s]   ext: WORKFLOW TIMEOUT (no execution_success/error in 10min)
[ 931s]   ext: fetching comfy-test.toml from https://raw.githubusercontent.com/PozzettiAndrea/ComfyUI-SAM3/main/comfy-test.toml
[ 931s]   ext: cpu spec = exclude ['video_point_prompt']
[ 931s]   loop: workflows/ from $COMFY_TEST_WORKFLOWS -> ['image_seg_point', 'image_seg_text', 'scene_seg', 'scene_seg_interactive', 'video_point_prompt']
[ 931s]   loop: spec=exclude items=['video_point_prompt'] -> 4 workflow(s) ['image_seg_point', 'image_seg_text', 'scene_seg', 'scene_seg_interactive']
[ 931s]   loop: matching=4 first_ran='scene_seg_interactive' remaining=3 -> ['image_seg_point', 'image_seg_text', 'scene_seg']
[ 931s]   loop: full restart for workflow 2/4 (image_seg_point)
[ 931s]   loop: closing current browser
[ 931s]   loop: killing ComfyUI process
[ 936s]   loop: launching ComfyUI with --remote-debugging-port=0
[ 936s]   loop: waiting for DevToolsActivePort at /Users/runner/Library/Application Support/ComfyUI/DevToolsActivePort
[ 937s]   loop: DevToolsActivePort -> 49920 after 2s
[ 937s]   loop: reconnecting Playwright on port 49920
[ 938s]   loop: attached to file:///Users/runner/.comfy-test-cache/desktop/ComfyUI.app/Contents/Resources/desktop-ui/index.html#/desktop-start
[ 950s]   loop: server ready after 11s
[ 953s]   loop: canvas ready after 2s
[ 953s]   loop: forcing renderer reload
[ 955s]   loop: canvas ready after 2s
[ 958s]   ext: closing Nodes Manager dialog
[ 958s]   ext: dismissing What's New popup
[ 958s]   ext: What's New popup not present
[ 958s]   ext: dismissing Node Pack Issues modal (if present)
[ 958s]   ext: Node Pack Issues modal not present
[ 958s]   ext: opening Templates sidebar
[ 959s]   ext: clicked Templates
[ 963s]   ext: locating "comfyui-sam3" section in Templates panel
[ 965s]   ext: clicked comfyui-sam3 section
[ 968s]   ext: clicking template image_seg_point
[ 970s]   ext: clicked template image_seg_point
[ 976s]   ext: installing WS execution listener
[ 976s]   ext: clicking Run
[ 976s]   ext: clicked Run
[ 976s]   ext: waiting for execution_success / execution_error
[1577s]   ext: WS events=0 elapsed=600s
[1577s]   ext: WORKFLOW TIMEOUT (no execution_success/error in 10min)
[1582s]   loop: full restart for workflow 3/4 (image_seg_text)
[1582s]   loop: closing current browser
[1582s]   loop: killing ComfyUI process
[1587s]   loop: launching ComfyUI with --remote-debugging-port=0
[1587s]   loop: waiting for DevToolsActivePort at /Users/runner/Library/Application Support/ComfyUI/DevToolsActivePort
[1588s]   loop: DevToolsActivePort -> 50116 after 2s
[1588s]   loop: reconnecting Playwright on port 50116
[1588s]   loop: attached to file:///Users/runner/.comfy-test-cache/desktop/ComfyUI.app/Contents/Resources/desktop-ui/index.html#/desktop-start
[1599s]   loop: server ready after 10s
[1601s]   loop: canvas ready after 2s
[1601s]   loop: forcing renderer reload
[1603s]   loop: canvas ready after 2s
[1606s]   ext: closing Nodes Manager dialog
[1606s]   ext: dismissing What's New popup
[1606s]   ext: What's New popup not present
[1606s]   ext: dismissing Node Pack Issues modal (if present)
[1606s]   ext: Node Pack Issues modal not present
[1606s]   ext: opening Templates sidebar
[1607s]   ext: clicked Templates
[1611s]   ext: locating "comfyui-sam3" section in Templates panel
[1613s]   ext: clicked comfyui-sam3 section
[1615s]   ext: clicking template image_seg_text
[1617s]   ext: clicked template image_seg_text
[1623s]   ext: installing WS execution listener
[1623s]   ext: clicking Run
[1623s]   ext: clicked Run
[1623s]   ext: waiting for execution_success / execution_error
[2224s]   ext: WS events=0 elapsed=600s
[2224s]   ext: WORKFLOW TIMEOUT (no execution_success/error in 10min)
[2229s]   loop: full restart for workflow 4/4 (scene_seg)
[2229s]   loop: closing current browser
[2229s]   loop: killing ComfyUI process
[2234s]   loop: launching ComfyUI with --remote-debugging-port=0
[2234s]   loop: waiting for DevToolsActivePort at /Users/runner/Library/Application Support/ComfyUI/DevToolsActivePort
[2235s]   loop: DevToolsActivePort -> 50309 after 2s
[2235s]   loop: reconnecting Playwright on port 50309
[2236s]   loop: attached to file:///Users/runner/.comfy-test-cache/desktop/ComfyUI.app/Contents/Resources/desktop-ui/index.html#/desktop-start
[2249s]   loop: server ready after 11s
[2251s]   loop: canvas ready after 2s
[2251s]   loop: forcing renderer reload
[2253s]   loop: canvas ready after 2s
[2256s]   ext: closing Nodes Manager dialog
[2256s]   ext: dismissing What's New popup
[2256s]   ext: What's New popup not present
[2256s]   ext: dismissing Node Pack Issues modal (if present)
[2256s]   ext: Node Pack Issues modal not present
[2256s]   ext: opening Templates sidebar
[2257s]   ext: clicked Templates
[2261s]   ext: locating "comfyui-sam3" section in Templates panel
[2263s]   ext: clicked comfyui-sam3 section
[2266s]   ext: clicking template scene_seg
[2268s]   ext: clicked template scene_seg
[2273s]   ext: installing WS execution listener
[2273s]   ext: clicking Run
[2274s]   ext: clicked Run
[2274s]   ext: waiting for execution_success / execution_error
[2874s]   ext: WS events=0 elapsed=600s
[2874s]   ext: WORKFLOW TIMEOUT (no execution_success/error in 10min)
[2880s] Captured 4013 frames
[2880s] Wrote /Users/runner/work/comfy-gpu-ci/comfy-gpu-ci/comfy-test-logs/SAM3-1045/dev/macos-desktop/results.json (4 workflow(s), sha=de0ff5d2c2ea)
ffmpeg version 7.1 Copyright (c) 2000-2024 the FFmpeg developers
  built with Apple clang version 13.1.6 (clang-1316.0.21.2.5)
  configuration: --prefix=/Volumes/tempdisk/sw --extra-cflags=-fno-stack-check --arch=arm64 --cc=/usr/bin/clang --enable-gpl --enable-libvmaf --enable-libopenjpeg --enable-libopus --enable-libmp3lame --enable-libx264 --enable-libx265 --enable-libvpx --enable-libwebp --enable-libass --enable-libfreetype --enable-fontconfig --enable-libtheora --enable-libvorbis --enable-libsnappy --enable-libaom --enable-libvidstab --enable-libzimg --enable-libsvtav1 --enable-libharfbuzz --enable-libkvazaar --pkg-config-flags=--static --enable-ffplay --enable-postproc --enable-neon --enable-runtime-cpudetect --disable-indev=qtkit --disable-indev=x11grab_xcb
  libavutil      59. 39.100 / 59. 39.100
  libavcodec     61. 19.100 / 61. 19.100
  libavformat    61.  7.100 / 61.  7.100
  libavdevice    61.  3.100 / 61.  3.100
  libavfilter    10.  4.100 / 10.  4.100
  libswscale      8.  3.100 /  8.  3.100
  libswresample   5.  3.100 /  5.  3.100
  libpostproc    58.  3.100 / 58.  3.100
Input #0, image2, from '/Users/runner/work/comfy-gpu-ci/comfy-gpu-ci/comfy-test-logs/SAM3-1045/dev/macos-desktop/debug/electron_inspect/frames/frame_%06d.png':
  Duration: 00:13:22.60, start: 0.000000, bitrate: N/A
  Stream #0:0: Video: png, rgb24(pc, gbr/bt709/iec61966-2-1), 1024x656, 5 fps, 5 tbr, 5 tbn
Stream mapping:
  Stream #0:0 -> #0:0 (png (native) -> h264 (libx264))
Press [q] to stop, [?] for help
[libx264 @ 0x14ef05070] using cpu capabilities: ARMv8 NEON
[libx264 @ 0x14ef05070] profile High, level 3.1, 4:2:0, 8-bit
[libx264 @ 0x14ef05070] 264 - core 164 r3190 7ed753b - H.264/MPEG-4 AVC codec - Copyleft 2003-2024 - http://www.videolan.org/x264.html - options: cabac=1 ref=3 deblock=1:0:0 analyse=0x3:0x113 me=hex subme=7 psy=1 psy_rd=1.00:0.00 mixed_ref=1 me_range=16 chroma_me=1 trellis=1 8x8dct=1 cqm=0 deadzone=21,11 fast_pskip=1 chroma_qp_offset=-2 threads=4 lookahead_threads=1 sliced_threads=0 nr=0 decimate=1 interlaced=0 bluray_compat=0 constrained_intra=0 bframes=3 b_pyramid=2 b_adapt=1 b_bias=0 direct=1 weightb=1 open_gop=0 weightp=2 keyint=250 keyint_min=5 scenecut=40 intra_refresh=0 rc_lookahead=40 rc=crf mbtree=1 crf=23.0 qcomp=0.60 qpmin=0 qpmax=69 qpstep=4 ip_ratio=1.40 aq=1:1.00
Output #0, mp4, to '/Users/runner/work/comfy-gpu-ci/comfy-gpu-ci/comfy-test-logs/SAM3-1045/dev/macos-desktop/debug/electron_inspect/driver.mp4':
  Metadata:
    encoder         : Lavf61.7.100
  Stream #0:0: Video: h264 (avc1 / 0x31637661), yuv420p(tv, unknown/bt709/iec61966-2-1, progressive), 1024x656, q=2-31, 5 fps, 10240 tbn
      Metadata:
        encoder         : Lavc61.19.100 libx264
      Side data:
        cpb: bitrate max/min/avg: 0/0/0 buffer size: 0 vbv_delay: N/A
frame=   39 fps=0.0 q=23.0 size=       0KiB time=00:00:07.40 bitrate=   0.1kbits/s speed=11.4x    
frame=  101 fps= 87 q=23.0 size=     256KiB time=00:00:19.80 bitrate= 105.9kbits/s speed=  17x    
frame=  189 fps=106 q=23.0 size=     512KiB time=00:00:37.40 bitrate= 112.2kbits/s speed=  21x    
frame=  268 fps=112 q=23.0 size=     768KiB time=00:00:53.20 bitrate= 118.3kbits/s speed=22.3x    
frame=  375 fps=124 q=23.0 size=    1024KiB time=00:01:14.60 bitrate= 112.5kbits/s speed=24.8x    
frame=  495 fps=140 q=23.0 size=    1024KiB time=00:01:38.60 bitrate=  85.1kbits/s speed=27.9x    
frame=  631 fps=151 q=23.0 size=    1280KiB time=00:02:05.80 bitrate=  83.4kbits/s speed=30.1x    
frame=  757 fps=159 q=23.0 size=    1280KiB time=00:02:31.00 bitrate=  69.4kbits/s speed=31.8x    
frame=  892 fps=166 q=23.0 size=    1280KiB time=00:02:58.00 bitrate=  58.9kbits/s speed=33.2x    
frame= 1003 fps=168 q=23.0 size=    1280KiB time=00:03:20.20 bitrate=  52.4kbits/s speed=33.6x    
frame= 1132 fps=172 q=23.0 size=    1280KiB time=00:03:46.00 bitrate=  46.4kbits/s speed=34.3x    
[vf#0:0 @ 0x600001e64140] Reconfiguring filter graph because video parameters changed to rgb24(pc, gbr), 1024x653
frame= 1204 fps=166 q=23.0 size=    1536KiB time=00:04:00.40 bitrate=  52.3kbits/s speed=33.2x    
frame= 1277 fps=162 q=23.0 size=    1792KiB time=00:04:15.00 bitrate=  57.6kbits/s speed=32.4x    
frame= 1384 fps=163 q=23.0 size=    1792KiB time=00:04:36.40 bitrate=  53.1kbits/s speed=32.6x    
frame= 1485 fps=165 q=23.0 size=    1792KiB time=00:04:56.60 bitrate=  49.5kbits/s speed=  33x    
frame= 1567 fps=165 q=23.0 size=    1792KiB time=00:05:13.00 bitrate=  46.9kbits/s speed=  33x    
frame= 1664 fps=167 q=23.0 size=    1792KiB time=00:05:32.40 bitrate=  44.2kbits/s speed=33.3x    
frame= 1781 fps=168 q=23.0 size=    2048KiB time=00:05:55.80 bitrate=  47.2kbits/s speed=33.5x    
frame= 1906 fps=170 q=23.0 size=    2048KiB time=00:06:20.80 bitrate=  44.1kbits/s speed=33.9x    
frame= 2029 fps=171 q=23.0 size=    2048KiB time=00:06:45.40 bitrate=  41.4kbits/s speed=34.1x    
[vf#0:0 @ 0x600001e64140] Reconfiguring filter graph because video parameters changed to rgb24(pc, gbr), 1024x656
frame= 2127 fps=172 q=23.0 size=    2048KiB time=00:07:05.00 bitrate=  39.5kbits/s speed=34.3x    
frame= 2217 fps=170 q=23.0 size=    2560KiB time=00:07:23.00 bitrate=  47.3kbits/s speed=  34x    
frame= 2341 fps=171 q=23.0 size=    2560KiB time=00:07:47.80 bitrate=  44.8kbits/s speed=34.2x    
frame= 2453 fps=172 q=23.0 size=    2560KiB time=00:08:10.20 bitrate=  42.8kbits/s speed=34.5x    
frame= 2574 fps=174 q=23.0 size=    2560KiB time=00:08:34.40 bitrate=  40.8kbits/s speed=34.8x    
frame= 2700 fps=175 q=23.0 size=    2816KiB time=00:08:59.60 bitrate=  42.8kbits/s speed=  35x    
frame= 2824 fps=176 q=23.0 size=    2816KiB time=00:09:24.40 bitrate=  40.9kbits/s speed=35.2x    
frame= 2951 fps=177 q=23.0 size=    2816KiB time=00:09:49.80 bitrate=  39.1kbits/s speed=35.4x    
[vf#0:0 @ 0x600001e64140] Reconfiguring filter graph because video parameters changed to rgb24(pc, gbr), 1024x653
frame= 3041 fps=177 q=23.0 size=    2816KiB time=00:10:07.80 bitrate=  38.0kbits/s speed=35.4x    
frame= 3109 fps=175 q=23.0 size=    3328KiB time=00:10:21.40 bitrate=  43.9kbits/s speed=  35x    
frame= 3244 fps=177 q=23.0 size=    3328KiB time=00:10:48.40 bitrate=  42.0kbits/s speed=35.4x    
frame= 3383 fps=178 q=23.0 size=    3328KiB time=00:11:16.20 bitrate=  40.3kbits/s speed=35.6x    
frame= 3515 fps=180 q=23.0 size=    3328KiB time=00:11:42.60 bitrate=  38.8kbits/s speed=35.9x    
frame= 3639 fps=181 q=23.0 size=    3584KiB time=00:12:07.40 bitrate=  40.4kbits/s speed=36.2x    
frame= 3773 fps=182 q=23.0 size=    3584KiB time=00:12:34.20 bitrate=  38.9kbits/s speed=36.4x    
frame= 3898 fps=183 q=23.0 size=    3584KiB time=00:12:59.20 bitrate=  37.7kbits/s speed=36.5x    
[out#0/mp4 @ 0x600001a64000] video:3658KiB audio:0KiB subtitle:0KiB other streams:0KiB global headers:0KiB muxing overhead: 1.303823%
frame= 4013 fps=185 q=-1.0 Lsize=    3706KiB time=00:13:22.20 bitrate=  37.8kbits/s speed=36.9x    
[libx264 @ 0x14ef05070] frame I:36    Avg QP: 7.84  size: 47949
[libx264 @ 0x14ef05070] frame P:1043  Avg QP:13.53  size:  1129
[libx264 @ 0x14ef05070] frame B:2934  Avg QP:23.16  size:   287
[libx264 @ 0x14ef05070] consecutive B-frames:  2.0%  1.2%  0.9% 95.9%
[libx264 @ 0x14ef05070] mb I  I16..4: 58.6% 14.0% 27.4%
[libx264 @ 0x14ef05070] mb P  I16..4:  0.6%  0.7%  0.7%  P16..4:  0.6%  0.2%  0.1%  0.0%  0.0%    skip:97.1%
[libx264 @ 0x14ef05070] mb B  I16..4:  0.1%  0.1%  0.1%  B16..8:  0.5%  0.1%  0.1%  direct: 0.1%  skip:99.0%  L0:47.9% L1:48.8% BI: 3.4%
[libx264 @ 0x14ef05070] 8x8 transform intra:23.6% inter:43.8%
[libx264 @ 0x14ef05070] coded y,uvDC,uvAC intra: 37.6% 19.7% 14.9% inter: 0.2% 0.1% 0.0%
[libx264 @ 0x14ef05070] i16 v,h,dc,p: 69% 28%  2%  1%
[libx264 @ 0x14ef05070] i8 v,h,dc,ddl,ddr,vr,hd,vl,hu: 29% 20% 33%  2%  3%  3%  3%  2%  4%
[libx264 @ 0x14ef05070] i4 v,h,dc,ddl,ddr,vr,hd,vl,hu: 32% 30% 16%  3%  4%  4%  5%  3%  4%
[libx264 @ 0x14ef05070] i8c dc,h,v,p: 77% 13%  8%  2%
[libx264 @ 0x14ef05070] Weighted P-Frames: Y:0.3% UV:0.2%
[libx264 @ 0x14ef05070] ref P L0: 64.3%  3.1% 14.5% 18.1%
[libx264 @ 0x14ef05070] ref B L0: 71.8% 22.8%  5.4%
[libx264 @ 0x14ef05070] ref B L1: 95.1%  4.9%
[libx264 @ 0x14ef05070] kb/s:37.33
[2902s] Wrote /Users/runner/work/comfy-gpu-ci/comfy-gpu-ci/comfy-test-logs/SAM3-1045/dev/macos-desktop/debug/electron_inspect/driver.mp4
ffmpeg version 7.1 Copyright (c) 2000-2024 the FFmpeg developers
  built with Apple clang version 13.1.6 (clang-1316.0.21.2.5)
  configuration: --prefix=/Volumes/tempdisk/sw --extra-cflags=-fno-stack-check --arch=arm64 --cc=/usr/bin/clang --enable-gpl --enable-libvmaf --enable-libopenjpeg --enable-libopus --enable-libmp3lame --enable-libx264 --enable-libx265 --enable-libvpx --enable-libwebp --enable-libass --enable-libfreetype --enable-fontconfig --enable-libtheora --enable-libvorbis --enable-libsnappy --enable-libaom --enable-libvidstab --enable-libzimg --enable-libsvtav1 --enable-libharfbuzz --enable-libkvazaar --pkg-config-flags=--static --enable-ffplay --enable-postproc --enable-neon --enable-runtime-cpudetect --disable-indev=qtkit --disable-indev=x11grab_xcb
  libavutil      59. 39.100 / 59. 39.100
  libavcodec     61. 19.100 / 61. 19.100
  libavformat    61.  7.100 / 61.  7.100
  libavdevice    61.  3.100 / 61.  3.100
  libavfilter    10.  4.100 / 10.  4.100
  libswscale      8.  3.100 /  8.  3.100
  libswresample   5.  3.100 /  5.  3.100
  libpostproc    58.  3.100 / 58.  3.100
Input #0, image2, from '/Users/runner/work/comfy-gpu-ci/comfy-gpu-ci/comfy-test-logs/SAM3-1045/dev/macos-desktop/debug/electron_inspect/frames/frame_%06d.png':
  Duration: 00:12:23.20, start: 0.000000, bitrate: N/A
  Stream #0:0: Video: png, rgb24(pc, gbr/bt709/iec61966-2-1), 1024x656, 5 fps, 5 tbr, 5 tbn
Stream mapping:
  Stream #0:0 -> #0:0 (png (native) -> h264 (libx264))
Press [q] to stop, [?] for help
[libx264 @ 0x11d608220] using cpu capabilities: ARMv8 NEON
[libx264 @ 0x11d608220] profile High, level 3.1, 4:2:0, 8-bit
[libx264 @ 0x11d608220] 264 - core 164 r3190 7ed753b - H.264/MPEG-4 AVC codec - Copyleft 2003-2024 - http://www.videolan.org/x264.html - options: cabac=1 ref=3 deblock=1:0:0 analyse=0x3:0x113 me=hex subme=7 psy=1 psy_rd=1.00:0.00 mixed_ref=1 me_range=16 chroma_me=1 trellis=1 8x8dct=1 cqm=0 deadzone=21,11 fast_pskip=1 chroma_qp_offset=-2 threads=4 lookahead_threads=1 sliced_threads=0 nr=0 decimate=1 interlaced=0 bluray_compat=0 constrained_intra=0 bframes=3 b_pyramid=2 b_adapt=1 b_bias=0 direct=1 weightb=1 open_gop=0 weightp=2 keyint=250 keyint_min=5 scenecut=40 intra_refresh=0 rc_lookahead=40 rc=crf mbtree=1 crf=23.0 qcomp=0.60 qpmin=0 qpmax=69 qpstep=4 ip_ratio=1.40 aq=1:1.00
Output #0, mp4, to '/Users/runner/work/comfy-gpu-ci/comfy-gpu-ci/comfy-test-logs/SAM3-1045/dev/macos-desktop/videos/scene_seg_interactive/driver.mp4':
  Metadata:
    encoder         : Lavf61.7.100
  Stream #0:0: Video: h264 (avc1 / 0x31637661), yuv420p(tv, unknown/bt709/iec61966-2-1, progressive), 1024x656, q=2-31, 5 fps, 10240 tbn
      Metadata:
        encoder         : Lavc61.19.100 libx264
      Side data:
        cpb: bitrate max/min/avg: 0/0/0 buffer size: 0 vbv_delay: N/A
frame=   65 fps=0.0 q=23.0 size=       0KiB time=00:00:12.60 bitrate=   0.0kbits/s speed=19.6x    
frame=  154 fps=120 q=23.0 size=       0KiB time=00:00:30.40 bitrate=   0.0kbits/s speed=23.7x    
frame=  252 fps=134 q=23.0 size=       0KiB time=00:00:50.00 bitrate=   0.0kbits/s speed=26.6x    
frame=  364 fps=151 q=23.0 size=       0KiB time=00:01:12.40 bitrate=   0.0kbits/s speed=  30x    
frame=  500 fps=163 q=23.0 size=       0KiB time=00:01:39.60 bitrate=   0.0kbits/s speed=32.5x    
frame=  634 fps=171 q=23.0 size=       0KiB time=00:02:06.40 bitrate=   0.0kbits/s speed=34.1x    
frame=  764 fps=177 q=23.0 size=     256KiB time=00:02:32.40 bitrate=  13.8kbits/s speed=35.3x    
frame=  897 fps=185 q=23.0 size=     256KiB time=N/A bitrate=N/A speed=N/A    
[out#0/mp4 @ 0x600000738300] video:292KiB audio:0KiB subtitle:0KiB other streams:0KiB global headers:0KiB muxing overhead: 3.892082%
frame=  900 fps=186 q=-1.0 Lsize=     304KiB time=00:02:59.60 bitrate=  13.9kbits/s speed=37.1x    
[libx264 @ 0x11d608220] frame I:4     Avg QP: 8.31  size: 62176
[libx264 @ 0x11d608220] frame P:227   Avg QP: 9.32  size:   109
[libx264 @ 0x11d608220] frame B:669   Avg QP:23.34  size:    38
[libx264 @ 0x11d608220] consecutive B-frames:  0.9%  0.0%  0.0% 99.1%
[libx264 @ 0x11d608220] mb I  I16..4: 48.5% 17.8% 33.7%
[libx264 @ 0x11d608220] mb P  I16..4:  0.0%  0.0%  0.0%  P16..4:  0.3%  0.0%  0.0%  0.0%  0.0%    skip:99.6%
[libx264 @ 0x11d608220] mb B  I16..4:  0.0%  0.1%  0.0%  B16..8:  0.2%  0.0%  0.0%  direct: 0.0%  skip:99.7%  L0:51.1% L1:48.9% BI: 0.1%
[libx264 @ 0x11d608220] 8x8 transform intra:25.9% inter:85.8%
[libx264 @ 0x11d608220] coded y,uvDC,uvAC intra: 41.6% 13.9% 12.0% inter: 0.0% 0.0% 0.0%
[libx264 @ 0x11d608220] i16 v,h,dc,p: 54% 44%  2%  0%
[libx264 @ 0x11d608220] i8 v,h,dc,ddl,ddr,vr,hd,vl,hu: 38% 14% 48%  0%  0%  0%  0%  0%  0%
[libx264 @ 0x11d608220] i4 v,h,dc,ddl,ddr,vr,hd,vl,hu: 41% 33% 11%  2%  2%  2%  3%  2%  3%
[libx264 @ 0x11d608220] i8c dc,h,v,p: 77% 16%  7%  1%
[libx264 @ 0x11d608220] Weighted P-Frames: Y:0.0% UV:0.0%
[libx264 @ 0x11d608220] ref P L0: 98.8%  0.0%  1.2%
[libx264 @ 0x11d608220] ref B L0: 54.3% 45.3%  0.4%
[libx264 @ 0x11d608220] ref B L1: 97.2%  2.8%
[libx264 @ 0x11d608220] kb/s:13.27
[2907s]   videos/scene_seg_interactive/driver.mp4 placed (frames 298..1197)
[2907s]   screenshots/scene_seg_interactive_executed.png placed
ffmpeg version 7.1 Copyright (c) 2000-2024 the FFmpeg developers
  built with Apple clang version 13.1.6 (clang-1316.0.21.2.5)
  configuration: --prefix=/Volumes/tempdisk/sw --extra-cflags=-fno-stack-check --arch=arm64 --cc=/usr/bin/clang --enable-gpl --enable-libvmaf --enable-libopenjpeg --enable-libopus --enable-libmp3lame --enable-libx264 --enable-libx265 --enable-libvpx --enable-libwebp --enable-libass --enable-libfreetype --enable-fontconfig --enable-libtheora --enable-libvorbis --enable-libsnappy --enable-libaom --enable-libvidstab --enable-libzimg --enable-libsvtav1 --enable-libharfbuzz --enable-libkvazaar --pkg-config-flags=--static --enable-ffplay --enable-postproc --enable-neon --enable-runtime-cpudetect --disable-indev=qtkit --disable-indev=x11grab_xcb
  libavutil      59. 39.100 / 59. 39.100
  libavcodec     61. 19.100 / 61. 19.100
  libavformat    61.  7.100 / 61.  7.100
  libavdevice    61.  3.100 / 61.  3.100
  libavfilter    10.  4.100 / 10.  4.100
  libswscale      8.  3.100 /  8.  3.100
  libswresample   5.  3.100 /  5.  3.100
  libpostproc    58.  3.100 / 58.  3.100
Input #0, image2, from '/Users/runner/work/comfy-gpu-ci/comfy-gpu-ci/comfy-test-logs/SAM3-1045/dev/macos-desktop/debug/electron_inspect/frames/frame_%06d.png':
  Duration: 00:09:16.20, start: 0.000000, bitrate: N/A
  Stream #0:0: Video: png, rgb24(pc, gbr/bt709/iec61966-2-1), 1024x653, 5 fps, 5 tbr, 5 tbn
Stream mapping:
  Stream #0:0 -> #0:0 (png (native) -> h264 (libx264))
Press [q] to stop, [?] for help
[libx264 @ 0x15bf05310] using cpu capabilities: ARMv8 NEON
[libx264 @ 0x15bf05310] profile High, level 3.1, 4:2:0, 8-bit
[libx264 @ 0x15bf05310] 264 - core 164 r3190 7ed753b - H.264/MPEG-4 AVC codec - Copyleft 2003-2024 - http://www.videolan.org/x264.html - options: cabac=1 ref=3 deblock=1:0:0 analyse=0x3:0x113 me=hex subme=7 psy=1 psy_rd=1.00:0.00 mixed_ref=1 me_range=16 chroma_me=1 trellis=1 8x8dct=1 cqm=0 deadzone=21,11 fast_pskip=1 chroma_qp_offset=-2 threads=4 lookahead_threads=1 sliced_threads=0 nr=0 decimate=1 interlaced=0 bluray_compat=0 constrained_intra=0 bframes=3 b_pyramid=2 b_adapt=1 b_bias=0 direct=1 weightb=1 open_gop=0 weightp=2 keyint=250 keyint_min=5 scenecut=40 intra_refresh=0 rc_lookahead=40 rc=crf mbtree=1 crf=23.0 qcomp=0.60 qpmin=0 qpmax=69 qpstep=4 ip_ratio=1.40 aq=1:1.00
Output #0, mp4, to '/Users/runner/work/comfy-gpu-ci/comfy-gpu-ci/comfy-test-logs/SAM3-1045/dev/macos-desktop/videos/image_seg_point/driver.mp4':
  Metadata:
    encoder         : Lavf61.7.100
  Stream #0:0: Video: h264 (avc1 / 0x31637661), yuv420p(tv, unknown/bt709/iec61966-2-1, progressive), 1024x654, q=2-31, 5 fps, 10240 tbn
      Metadata:
        encoder         : Lavc61.19.100 libx264
      Side data:
        cpb: bitrate max/min/avg: 0/0/0 buffer size: 0 vbv_delay: N/A
frame=   96 fps=0.0 q=23.0 size=       0KiB time=00:00:18.80 bitrate=   0.0kbits/s speed=29.7x    
frame=  242 fps=192 q=23.0 size=       0KiB time=00:00:48.00 bitrate=   0.0kbits/s speed=38.2x    
frame=  389 fps=204 q=23.0 size=       0KiB time=00:01:17.40 bitrate=   0.0kbits/s speed=40.6x    
frame=  462 fps=191 q=23.0 size=       0KiB time=00:01:32.00 bitrate=   0.0kbits/s speed=38.1x    
frame=  555 fps=181 q=23.0 size=       0KiB time=00:01:50.60 bitrate=   0.0kbits/s speed=36.1x    
frame=  658 fps=177 q=23.0 size=       0KiB time=00:02:11.20 bitrate=   0.0kbits/s speed=35.3x    
frame=  784 fps=185 q=23.0 size=     256KiB time=00:02:36.40 bitrate=  13.4kbits/s speed=36.8x    
[out#0/mp4 @ 0x600000c1c000] video:290KiB audio:0KiB subtitle:0KiB other streams:0KiB global headers:0KiB muxing overhead: 3.954045%
frame=  907 fps=195 q=-1.0 Lsize=     301KiB time=00:03:01.00 bitrate=  13.6kbits/s speed=38.8x    
[libx264 @ 0x15bf05310] frame I:5     Avg QP: 8.38  size: 48128
[libx264 @ 0x15bf05310] frame P:228   Avg QP:14.60  size:   151
[libx264 @ 0x15bf05310] frame B:674   Avg QP:23.31  size:    32
[libx264 @ 0x15bf05310] consecutive B-frames:  0.8%  0.4%  0.0% 98.8%
[libx264 @ 0x15bf05310] mb I  I16..4: 59.6% 12.9% 27.4%
[libx264 @ 0x15bf05310] mb P  I16..4:  0.1%  0.0%  0.0%  P16..4:  0.1%  0.0%  0.0%  0.0%  0.0%    skip:99.7%
[libx264 @ 0x15bf05310] mb B  I16..4:  0.0%  0.0%  0.0%  B16..8:  0.1%  0.0%  0.0%  direct: 0.0%  skip:99.9%  L0:50.4% L1:49.3% BI: 0.3%
[libx264 @ 0x15bf05310] 8x8 transform intra:13.3% inter:43.9%
[libx264 @ 0x15bf05310] coded y,uvDC,uvAC intra: 17.8% 18.1% 14.4% inter: 0.0% 0.0% 0.0%
[libx264 @ 0x15bf05310] i16 v,h,dc,p: 69% 29%  0%  1%
[libx264 @ 0x15bf05310] i8 v,h,dc,ddl,ddr,vr,hd,vl,hu: 57% 13% 26%  0%  2%  1%  1%  0%  1%
[libx264 @ 0x15bf05310] i4 v,h,dc,ddl,ddr,vr,hd,vl,hu: 33% 32% 17%  2%  3%  3%  4%  2%  3%
[libx264 @ 0x15bf05310] i8c dc,h,v,p: 71% 18%  8%  2%
[libx264 @ 0x15bf05310] Weighted P-Frames: Y:0.0% UV:0.0%
[libx264 @ 0x15bf05310] ref P L0: 68.0% 11.3% 19.9%  0.8%
[libx264 @ 0x15bf05310] ref B L0: 44.1% 55.5%  0.3%
[libx264 @ 0x15bf05310] ref B L1: 94.7%  5.3%
[libx264 @ 0x15bf05310] kb/s:13.07
[2912s]   videos/image_seg_point/driver.mp4 placed (frames 1233..2139)
[2912s]   screenshots/image_seg_point_executed.png placed
ffmpeg version 7.1 Copyright (c) 2000-2024 the FFmpeg developers
  built with Apple clang version 13.1.6 (clang-1316.0.21.2.5)
  configuration: --prefix=/Volumes/tempdisk/sw --extra-cflags=-fno-stack-check --arch=arm64 --cc=/usr/bin/clang --enable-gpl --enable-libvmaf --enable-libopenjpeg --enable-libopus --enable-libmp3lame --enable-libx264 --enable-libx265 --enable-libvpx --enable-libwebp --enable-libass --enable-libfreetype --enable-fontconfig --enable-libtheora --enable-libvorbis --enable-libsnappy --enable-libaom --enable-libvidstab --enable-libzimg --enable-libsvtav1 --enable-libharfbuzz --enable-libkvazaar --pkg-config-flags=--static --enable-ffplay --enable-postproc --enable-neon --enable-runtime-cpudetect --disable-indev=qtkit --disable-indev=x11grab_xcb
  libavutil      59. 39.100 / 59. 39.100
  libavcodec     61. 19.100 / 61. 19.100
  libavformat    61.  7.100 / 61.  7.100
  libavdevice    61.  3.100 / 61.  3.100
  libavfilter    10.  4.100 / 10.  4.100
  libswscale      8.  3.100 /  8.  3.100
  libswresample   5.  3.100 /  5.  3.100
  libpostproc    58.  3.100 / 58.  3.100
Input #0, image2, from '/Users/runner/work/comfy-gpu-ci/comfy-gpu-ci/comfy-test-logs/SAM3-1045/dev/macos-desktop/debug/electron_inspect/frames/frame_%06d.png':
  Duration: 00:06:07.60, start: 0.000000, bitrate: N/A
  Stream #0:0: Video: png, rgb24(pc, gbr/bt709/iec61966-2-1), 1024x656, 5 fps, 5 tbr, 5 tbn
Stream mapping:
  Stream #0:0 -> #0:0 (png (native) -> h264 (libx264))
Press [q] to stop, [?] for help
[libx264 @ 0x132608470] using cpu capabilities: ARMv8 NEON
[libx264 @ 0x132608470] profile High, level 3.1, 4:2:0, 8-bit
[libx264 @ 0x132608470] 264 - core 164 r3190 7ed753b - H.264/MPEG-4 AVC codec - Copyleft 2003-2024 - http://www.videolan.org/x264.html - options: cabac=1 ref=3 deblock=1:0:0 analyse=0x3:0x113 me=hex subme=7 psy=1 psy_rd=1.00:0.00 mixed_ref=1 me_range=16 chroma_me=1 trellis=1 8x8dct=1 cqm=0 deadzone=21,11 fast_pskip=1 chroma_qp_offset=-2 threads=4 lookahead_threads=1 sliced_threads=0 nr=0 decimate=1 interlaced=0 bluray_compat=0 constrained_intra=0 bframes=3 b_pyramid=2 b_adapt=1 b_bias=0 direct=1 weightb=1 open_gop=0 weightp=2 keyint=250 keyint_min=5 scenecut=40 intra_refresh=0 rc_lookahead=40 rc=crf mbtree=1 crf=23.0 qcomp=0.60 qpmin=0 qpmax=69 qpstep=4 ip_ratio=1.40 aq=1:1.00
Output #0, mp4, to '/Users/runner/work/comfy-gpu-ci/comfy-gpu-ci/comfy-test-logs/SAM3-1045/dev/macos-desktop/videos/image_seg_text/driver.mp4':
  Metadata:
    encoder         : Lavf61.7.100
  Stream #0:0: Video: h264 (avc1 / 0x31637661), yuv420p(tv, unknown/bt709/iec61966-2-1, progressive), 1024x656, q=2-31, 5 fps, 10240 tbn
      Metadata:
        encoder         : Lavc61.19.100 libx264
      Side data:
        cpb: bitrate max/min/avg: 0/0/0 buffer size: 0 vbv_delay: N/A
frame=   67 fps=0.0 q=23.0 size=       0KiB time=00:00:13.00 bitrate=   0.0kbits/s speed=24.2x    
frame=  191 fps=161 q=23.0 size=       0KiB time=00:00:37.80 bitrate=   0.0kbits/s speed=31.9x    
frame=  320 fps=175 q=23.0 size=       0KiB time=00:01:03.60 bitrate=   0.0kbits/s speed=34.7x    
frame=  406 fps=164 q=23.0 size=       0KiB time=00:01:20.80 bitrate=   0.0kbits/s speed=32.7x    
frame=  495 fps=160 q=23.0 size=       0KiB time=00:01:38.60 bitrate=   0.0kbits/s speed=31.8x    
frame=  601 fps=162 q=23.0 size=     256KiB time=00:01:59.80 bitrate=  17.5kbits/s speed=32.3x    
frame=  713 fps=166 q=23.0 size=     256KiB time=00:02:22.20 bitrate=  14.8kbits/s speed=33.2x    
frame=  845 fps=172 q=23.0 size=     256KiB time=00:02:48.60 bitrate=  12.4kbits/s speed=34.3x    
[out#0/mp4 @ 0x600002b44300] video:369KiB audio:0KiB subtitle:0KiB other streams:0KiB global headers:0KiB muxing overhead: 3.099244%
frame=  905 fps=178 q=-1.0 Lsize=     381KiB time=00:03:00.60 bitrate=  17.3kbits/s speed=35.4x    
[libx264 @ 0x132608470] frame I:5     Avg QP: 9.34  size: 64149
[libx264 @ 0x132608470] frame P:228   Avg QP:14.08  size:   136
[libx264 @ 0x132608470] frame B:672   Avg QP:23.22  size:    38
[libx264 @ 0x132608470] consecutive B-frames:  0.8%  0.7%  0.0% 98.6%
[libx264 @ 0x132608470] mb I  I16..4: 49.1% 13.9% 37.1%
[libx264 @ 0x132608470] mb P  I16..4:  0.1%  0.0%  0.0%  P16..4:  0.3%  0.0%  0.0%  0.0%  0.0%    skip:99.5%
[libx264 @ 0x132608470] mb B  I16..4:  0.0%  0.0%  0.0%  B16..8:  0.1%  0.0%  0.0%  direct: 0.0%  skip:99.9%  L0:43.0% L1:55.4% BI: 1.6%
[libx264 @ 0x132608470] 8x8 transform intra:16.2% inter:63.4%
[libx264 @ 0x132608470] coded y,uvDC,uvAC intra: 47.3% 17.4% 14.7% inter: 0.0% 0.1% 0.0%
[libx264 @ 0x132608470] i16 v,h,dc,p: 53% 45%  0%  2%
[libx264 @ 0x132608470] i8 v,h,dc,ddl,ddr,vr,hd,vl,hu: 45% 17% 34%  0%  1%  1%  1%  0%  0%
[libx264 @ 0x132608470] i4 v,h,dc,ddl,ddr,vr,hd,vl,hu: 42% 32% 12%  2%  2%  2%  3%  2%  3%
[libx264 @ 0x132608470] i8c dc,h,v,p: 75% 15%  8%  2%
[libx264 @ 0x132608470] Weighted P-Frames: Y:0.0% UV:0.0%
[libx264 @ 0x132608470] ref P L0: 97.3%  0.3%  2.1%  0.2%
[libx264 @ 0x132608470] ref B L0: 64.4% 34.6%  1.1%
[libx264 @ 0x132608470] ref B L1: 97.2%  2.8%
[libx264 @ 0x132608470] kb/s:16.68
[2917s]   videos/image_seg_text/driver.mp4 placed (frames 2176..3080)
[2917s]   screenshots/image_seg_text_executed.png placed
ffmpeg version 7.1 Copyright (c) 2000-2024 the FFmpeg developers
  built with Apple clang version 13.1.6 (clang-1316.0.21.2.5)
  configuration: --prefix=/Volumes/tempdisk/sw --extra-cflags=-fno-stack-check --arch=arm64 --cc=/usr/bin/clang --enable-gpl --enable-libvmaf --enable-libopenjpeg --enable-libopus --enable-libmp3lame --enable-libx264 --enable-libx265 --enable-libvpx --enable-libwebp --enable-libass --enable-libfreetype --enable-fontconfig --enable-libtheora --enable-libvorbis --enable-libsnappy --enable-libaom --enable-libvidstab --enable-libzimg --enable-libsvtav1 --enable-libharfbuzz --enable-libkvazaar --pkg-config-flags=--static --enable-ffplay --enable-postproc --enable-neon --enable-runtime-cpudetect --disable-indev=qtkit --disable-indev=x11grab_xcb
  libavutil      59. 39.100 / 59. 39.100
  libavcodec     61. 19.100 / 61. 19.100
  libavformat    61.  7.100 / 61.  7.100
  libavdevice    61.  3.100 / 61.  3.100
  libavfilter    10.  4.100 / 10.  4.100
  libswscale      8.  3.100 /  8.  3.100
  libswresample   5.  3.100 /  5.  3.100
  libpostproc    58.  3.100 / 58.  3.100
Input #0, image2, from '/Users/runner/work/comfy-gpu-ci/comfy-gpu-ci/comfy-test-logs/SAM3-1045/dev/macos-desktop/debug/electron_inspect/frames/frame_%06d.png':
  Duration: 00:02:59.60, start: 0.000000, bitrate: N/A
  Stream #0:0: Video: png, rgb24(pc, gbr/bt709/iec61966-2-1), 1024x653, 5 fps, 5 tbr, 5 tbn
Stream mapping:
  Stream #0:0 -> #0:0 (png (native) -> h264 (libx264))
Press [q] to stop, [?] for help
[libx264 @ 0x124607e80] using cpu capabilities: ARMv8 NEON
[libx264 @ 0x124607e80] profile High, level 3.1, 4:2:0, 8-bit
[libx264 @ 0x124607e80] 264 - core 164 r3190 7ed753b - H.264/MPEG-4 AVC codec - Copyleft 2003-2024 - http://www.videolan.org/x264.html - options: cabac=1 ref=3 deblock=1:0:0 analyse=0x3:0x113 me=hex subme=7 psy=1 psy_rd=1.00:0.00 mixed_ref=1 me_range=16 chroma_me=1 trellis=1 8x8dct=1 cqm=0 deadzone=21,11 fast_pskip=1 chroma_qp_offset=-2 threads=4 lookahead_threads=1 sliced_threads=0 nr=0 decimate=1 interlaced=0 bluray_compat=0 constrained_intra=0 bframes=3 b_pyramid=2 b_adapt=1 b_bias=0 direct=1 weightb=1 open_gop=0 weightp=2 keyint=250 keyint_min=5 scenecut=40 intra_refresh=0 rc_lookahead=40 rc=crf mbtree=1 crf=23.0 qcomp=0.60 qpmin=0 qpmax=69 qpstep=4 ip_ratio=1.40 aq=1:1.00
Output #0, mp4, to '/Users/runner/work/comfy-gpu-ci/comfy-gpu-ci/comfy-test-logs/SAM3-1045/dev/macos-desktop/videos/scene_seg/driver.mp4':
  Metadata:
    encoder         : Lavf61.7.100
  Stream #0:0: Video: h264 (avc1 / 0x31637661), yuv420p(tv, unknown/bt709/iec61966-2-1, progressive), 1024x654, q=2-31, 5 fps, 10240 tbn
      Metadata:
        encoder         : Lavc61.19.100 libx264
      Side data:
        cpb: bitrate max/min/avg: 0/0/0 buffer size: 0 vbv_delay: N/A
frame=   79 fps=0.0 q=23.0 size=       0KiB time=00:00:15.40 bitrate=   0.0kbits/s speed=30.2x    
frame=  191 fps=188 q=23.0 size=       0KiB time=00:00:37.80 bitrate=   0.0kbits/s speed=37.2x    
frame=  338 fps=206 q=23.0 size=       0KiB time=00:01:07.20 bitrate=   0.0kbits/s speed=  41x    
frame=  481 fps=211 q=23.0 size=       0KiB time=00:01:35.80 bitrate=   0.0kbits/s speed=  42x    
frame=  607 fps=214 q=23.0 size=       0KiB time=00:02:01.00 bitrate=   0.0kbits/s speed=42.7x    
frame=  750 fps=216 q=23.0 size=       0KiB time=00:02:29.60 bitrate=   0.0kbits/s speed=43.1x    
[out#0/mp4 @ 0x600000be4300] video:282KiB audio:0KiB subtitle:0KiB other streams:0KiB global headers:0KiB muxing overhead: 4.020776%
frame=  898 fps=226 q=-1.0 Lsize=     294KiB time=00:02:59.20 bitrate=  13.4kbits/s speed=45.1x    
[libx264 @ 0x124607e80] frame I:5     Avg QP: 7.98  size: 46686
[libx264 @ 0x124607e80] frame P:226   Avg QP:14.54  size:   123
[libx264 @ 0x124607e80] frame B:667   Avg QP:22.88  size:    41
[libx264 @ 0x124607e80] consecutive B-frames:  0.8%  0.4%  0.3% 98.4%
[libx264 @ 0x124607e80] mb I  I16..4: 61.8% 10.6% 27.6%
[libx264 @ 0x124607e80] mb P  I16..4:  0.1%  0.0%  0.0%  P16..4:  0.1%  0.0%  0.0%  0.0%  0.0%    skip:99.7%
[libx264 @ 0x124607e80] mb B  I16..4:  0.1%  0.0%  0.0%  B16..8:  0.0%  0.0%  0.0%  direct: 0.0%  skip:99.9%  L0:31.2% L1:66.4% BI: 2.4%
[libx264 @ 0x124607e80] 8x8 transform intra:11.6% inter:41.8%
[libx264 @ 0x124607e80] coded y,uvDC,uvAC intra: 15.7% 16.5% 12.7% inter: 0.0% 0.0% 0.0%
[libx264 @ 0x124607e80] i16 v,h,dc,p: 67% 32%  1%  1%
[libx264 @ 0x124607e80] i8 v,h,dc,ddl,ddr,vr,hd,vl,hu: 59% 11% 27%  0%  1%  1%  0%  0%  0%
[libx264 @ 0x124607e80] i4 v,h,dc,ddl,ddr,vr,hd,vl,hu: 33% 32% 18%  2%  3%  3%  3%  2%  4%
[libx264 @ 0x124607e80] i8c dc,h,v,p: 74% 14% 11%  1%
[libx264 @ 0x124607e80] Weighted P-Frames: Y:0.0% UV:0.0%
[libx264 @ 0x124607e80] ref P L0: 95.9%  0.5%  2.8%  0.8%
[libx264 @ 0x124607e80] ref B L0: 69.4% 30.6%
[libx264 @ 0x124607e80] ref B L1: 96.4%  3.6%
[libx264 @ 0x124607e80] kb/s:12.85
[2921s]   videos/scene_seg/driver.mp4 placed (frames 3116..4013)
[2921s]   screenshots/scene_seg_executed.png placed
[2921s]   removed /Users/runner/work/comfy-gpu-ci/comfy-gpu-ci/comfy-test-logs/SAM3-1045/dev/macos-desktop/debug/electron_inspect/frames after successful encode
